<?xml version="1.0" encoding="utf-8"?><!-- Uploaded to: SVG Repo, www.svgrepo.com, Generator: SVG Repo Mixer Tools -->
<svg version="1.1" id="Uploaded to svgrepo.com" xmlns="http://www.w3.org/2000/svg" xmlns:xlink="http://www.w3.org/1999/xlink" 
	 width="800px" height="800px" viewBox="0 0 32 32" xml:space="preserve">
<style type="text/css">
	.feather_een{fill:#0B1719;}
</style>
<path class="feather_een" d="M16,2c-0.241,0-0.482,0.006-0.725,0.017C7.207,2.397,1,9.347,1,17.424V21c0,1.105,0.895,2,2,2h0.132
	C3.525,25.595,4.863,27,8,27c0,0.552,0.448,1,1,1h1c0.552,0,1-0.448,1-1V15c0-0.552-0.448-1-1-1H9c-0.552,0-1,0.448-1,1
	c-1.942,0-3.194,0.539-3.959,1.565C4.454,10.323,9.449,5.118,15.775,5.002C15.85,5.001,15.926,5,16,5
	c6.491,0,11.764,5.157,11.98,11.596C27.216,15.551,25.96,15,24,15c0-0.552-0.448-1-1-1h-1c-0.552,0-1,0.448-1,1v12
	c0,0.552,0.448,1,1,1h1c0.552,0,1-0.448,1-1c3.137,0,4.475-1.405,4.868-4H29c1.105,0,2-0.895,2-2v-4C31,8.716,24.284,2,16,2z M9,15
	h1v12H9V15z M23,27h-1V15h1V27z M8,16v10c-2.991,0-4-1.262-4-5C4,17.262,5.009,16,8,16z M24,26V16c2.991,0,4,1.262,4,5
	C28,24.738,26.991,26,24,26z M30,21c0,0.551-0.449,1-1,1v-5c0-7.168-5.832-13-13-13l-0.243,0.002C8.723,4.131,3,10.14,3,17.398V22
	c-0.551,0-1-0.449-1-1v-3.576C2,9.696,7.852,3.368,15.322,3.016C15.55,3.005,15.775,3,16,3c7.72,0,14,6.28,14,14V21z"/>
</svg>